<?xml version="1.0" encoding="UTF-8" standalone="no"?>
<svg width="300px" height="191px" viewBox="0 0 300 191" version="1.1" xmlns="http://www.w3.org/2000/svg" xmlns:xlink="http://www.w3.org/1999/xlink" xmlns:sketch="http://www.bohemiancoding.com/sketch/ns">
    <!-- Generator: Sketch 3.3.2 (12043) - http://www.bohemiancoding.com/sketch -->
    <title>side_logo</title>
    <desc>Created with Sketch.</desc>
    <defs></defs>
    <g id="Page-1" stroke="none" stroke-width="1" fill="none" fill-rule="evenodd" sketch:type="MSPage">
        <g id="side_logo" sketch:type="MSArtboardGroup" fill="#FFFFFF">
            <g id="fieldlogs-+-Imported-Layers" sketch:type="MSLayerGroup" transform="translate(28.000000, 31.000000)">
                <g id="Imported-Layers" transform="translate(99.000000, 0.000000)" sketch:type="MSShapeGroup">
                    <path d="M36.9248728,40.5463487 C36.9248728,49.73053 29.9293496,57.1756161 21.2997445,57.1756161 C12.6701394,57.1756161 5.67461622,49.73053 5.67461622,40.5463487 C5.67461622,31.361145 12.6701394,23.916059 21.2997445,23.916059 C21.8967945,23.916059 22.4847181,23.9518428 23.0644762,24.0213657 L23.1394076,18.6578775 C22.5341921,18.6026681 21.9203306,18.574041 21.2997445,18.574041 C9.53646779,18.574041 1.42108547e-14,28.7218303 1.42108547e-14,41.2405555 C1.42108547e-14,53.9535358 10.3563908,62.3387148 21.2997445,73.9965827 C32.2402163,62.3387148 42.5970874,53.9535358 42.5970874,41.2405555 C42.5970874,40.0136805 42.5053444,38.8087871 42.3281027,37.6340544 L36.6554078,37.4490007 C36.8331298,38.4529934 36.9248728,39.4876579 36.9248728,40.5463487 Z" id="Fill-4"></path>
                    <path d="M28.8945278,0.000578812246 C36.7763735,-0.0484666989 44.6747028,3.01935757 50.7247358,9.21341988 C56.770515,15.4080333 59.8253085,23.556201 59.8742277,31.7225541 L54.6404014,31.7556185 C54.6053072,24.9752144 52.0684196,18.2107913 47.0440952,13.0687277 C42.023493,7.92721512 35.4693792,5.38291035 28.9264317,5.42148547 L28.8945278,0.000578812246 Z M28.9235494,15.8215537 C33.0177046,15.7947775 37.1306516,17.1807769 40.2713156,20.4614181 C43.4135626,23.7426171 44.9862094,27.4273588 45.012065,31.7556185 L50.3420124,31.7204747 C50.3071864,25.9513213 48.2037083,20.8279172 44.0161564,16.4527992 C39.8307151,12.0782391 34.3479489,10.149464 28.8945278,10.1862812 L28.9235494,14.9502118 L28.9235494,15.8215537 Z M33.782607,27.160601 C35.0078302,28.5153449 35.612008,29.9684156 35.6213721,31.7556185 L40.5119153,31.7214189 C40.4986083,28.5347921 39.4074955,25.6822974 37.2246662,23.2624026 C35.0383869,20.8485756 31.7407323,19.4499008 28.8945278,19.4730683 L28.9240988,24.9466528 C30.5169876,24.9361723 32.556398,25.8053055 33.782607,27.160601 Z" id="Path"></path>
                    <ellipse id="Oval-1" cx="21.5964254" cy="39.9941044" rx="7.89386584" ry="8.23848593"></ellipse>
                </g>
                <g id="FIELD-+-logs" transform="translate(0.000000, 96.000000)" sketch:type="MSShapeGroup">
                    <path d="M1.98857428,17.0166077 L12.6274467,17.0166077 C12.9257328,17.0166077 13.224019,17.0166077 13.4725908,16.8657918 C13.7211626,16.714976 13.8205913,16.4636162 13.8205913,16.1117125 C13.8205913,15.8100808 13.7211626,15.558721 13.4725908,15.4079052 C13.224019,15.2570893 12.9257328,15.2570893 12.6274467,15.2570893 L1.98857428,15.2570893 L1.98857428,2.63882875 L14.2680205,2.63882875 C14.5663066,2.63882875 14.8645928,2.63882875 15.1131645,2.48801288 C15.3617363,2.33719702 15.461165,2.08583725 15.461165,1.73393357 C15.461165,1.43230184 15.3617363,1.18094207 15.1131645,1.03012621 C14.8645928,0.879310345 14.5663066,0.879310345 14.2680205,0.879310345 L0.994287141,0.879310345 C0.248571785,0.879310345 0,1.23121403 0,1.88474943 L0,32.5506416 C0,32.8522733 0,33.1539051 0.149143071,33.3549929 C0.298286142,33.6063526 0.646286642,33.7068966 0.994287141,33.7068966 C1.34228764,33.7068966 1.69028814,33.6063526 1.83943121,33.3549929 C1.98857428,33.1539051 1.98857428,32.8522733 1.98857428,32.5506416 L1.98857428,17.0166077 Z M26.4623786,1.74041275 C26.4623786,1.43931557 26.4623786,1.13821839 26.3062803,0.937486938 C26.150182,0.686572623 25.7859527,0.586206897 25.4217233,0.586206897 C25.0574939,0.586206897 24.6932646,0.686572623 24.5371663,0.937486938 C24.381068,1.13821839 24.381068,1.43931557 24.381068,1.74041275 L24.381068,32.5526907 C24.381068,32.8537879 24.381068,33.1548851 24.5371663,33.3556165 C24.6932646,33.6065308 25.0574939,33.7068966 25.4217233,33.7068966 C25.7859527,33.7068966 26.150182,33.6065308 26.3062803,33.3556165 C26.4623786,33.1548851 26.4623786,32.8537879 26.4623786,32.5526907 L26.4623786,1.74041275 Z M40.6229525,2.63929009 L51.85218,2.63929009 C52.147686,2.63929009 52.443192,2.63929009 52.689447,2.48843469 C52.9357019,2.33757928 53.0342039,2.0861536 53.0342039,1.73415765 C53.0342039,1.43244684 52.9357019,1.18102116 52.689447,1.03016575 C52.443192,0.879310345 52.147686,0.879310345 51.85218,0.879310345 L39.6379326,0.879310345 C38.8991676,0.879310345 38.6529126,1.23130629 38.6529126,1.88501306 L38.6529126,32.4080904 C38.6529126,33.0617972 38.8991676,33.4137931 39.6379326,33.4137931 L53.5267139,33.4137931 C53.8222199,33.4137931 54.1177259,33.4137931 54.3639809,33.2629377 C54.6102359,33.1120823 54.7087379,32.8606566 54.7087379,32.5086607 C54.7087379,32.2069498 54.6102359,31.9555242 54.3639809,31.8046688 C54.1177259,31.6538134 53.8222199,31.6538134 53.5267139,31.6538134 L40.6229525,31.6538134 L40.6229525,16.5179875 L50.0791441,16.5179875 C50.3746501,16.5179875 50.6701561,16.5179875 50.916411,16.3671321 C51.162666,16.2162767 51.261168,15.964851 51.261168,15.6128551 C51.261168,15.3111443 51.162666,15.0597186 50.916411,14.9088632 C50.6701561,14.7580078 50.3746501,14.7580078 50.0791441,14.7580078 L40.6229525,14.7580078 L40.6229525,2.63929009 Z M66.5092054,31.6569651 L66.5092054,1.74069387 C66.5092054,1.43952336 66.5092054,1.13835284 66.3600623,0.937572498 C66.2109192,0.686597068 65.8629187,0.586206897 65.5149182,0.586206897 C65.1669177,0.586206897 64.8189172,0.686597068 64.6697741,0.937572498 C64.5206311,1.13835284 64.5206311,1.43952336 64.5206311,1.74069387 L64.5206311,32.4098914 C64.5206311,33.0624275 64.7692029,33.4137931 65.5149182,33.4137931 L78.7886515,33.4137931 C79.0869377,33.4137931 79.3852238,33.4137931 79.6337956,33.2632078 C79.8823674,33.1126226 79.9817961,32.8616472 79.9817961,32.5102816 C79.9817961,32.209111 79.8823674,31.9581356 79.6337956,31.8075504 C79.3852238,31.6569651 79.0869377,31.6569651 78.7886515,31.6569651 L66.5092054,31.6569651 Z M115.661408,16.9458203 C115.661408,10.5725967 113.274117,6.30705329 109.693182,3.79791014 C106.261452,1.38913271 101.884753,0.586206897 96.3641439,0.586206897 C93.628707,0.586206897 91.1916814,0.786938349 89.7990953,1.03785266 C88.6551853,1.23858412 88.3070388,1.5396813 88.3070388,2.64370428 L88.3070388,31.699582 C88.3070388,32.6530564 88.4065093,33.1047022 89.3017432,33.3054336 C90.2964475,33.556348 92.8826787,33.7068966 95.46891,33.7068966 C99.3979921,33.7068966 104.769395,33.3556165 109.096359,30.5453762 C112.72703,28.1867816 115.661408,24.021604 115.661408,16.9458203 L115.661408,16.9458203 Z M90.3883495,2.74691177 C90.3883495,2.74691177 92.7224226,2.34482759 96.3476851,2.34482759 C101.512443,2.34482759 105.435672,3.14899596 108.514662,5.46098004 C111.295685,7.57192202 113.580097,11.2409402 113.580097,17.3224636 C113.580097,31.3954101 101.264137,31.9482759 96.0000572,31.9482759 C92.474117,31.9482759 90.3883495,31.6969732 90.3883495,31.6969732 L90.3883495,2.74691177 Z" id="FIELD"></path>
                    <path d="M132.516487,31.3795476 L132.516487,1.73038595 C132.516487,1.43190446 132.516487,1.13342297 132.367344,0.934435305 C132.218201,0.685700728 131.8702,0.586206897 131.5222,0.586206897 C131.174199,0.586206897 130.826199,0.685700728 130.677056,0.934435305 C130.527913,1.13342297 130.527913,1.43190446 130.527913,1.73038595 L130.527913,32.1257513 C130.527913,32.7724612 130.776484,33.1206897 131.5222,33.1206897 L144.795933,33.1206897 C145.094219,33.1206897 145.392505,33.1206897 145.641077,32.9714489 C145.889649,32.8222082 145.989078,32.5734736 145.989078,32.2252452 C145.989078,31.9267637 145.889649,31.6780291 145.641077,31.5287884 C145.392505,31.3795476 145.094219,31.3795476 144.795933,31.3795476 L132.516487,31.3795476 Z M149.557039,17.05 C149.557039,27.25 155.66164,34 165.687083,34 C175.762156,34 181.966019,27.25 181.966019,17.05 C181.966019,6.85 175.861418,0 165.835975,0 C155.760902,0 149.557039,6.85 149.557039,17.05 L149.557039,17.05 Z M151.63835,16.9031023 C151.63835,7.31987296 157.267694,1.75862069 165.686803,1.75862069 C174.155729,1.75862069 179.884709,7.31987296 179.884709,16.9031023 C179.884709,26.4863317 174.255364,31.9482759 165.836255,31.9482759 C157.367329,31.9482759 151.63835,26.4863317 151.63835,16.9031023 L151.63835,16.9031023 Z M216.456311,22.6382128 C216.456311,22.3377056 216.456311,22.0371983 216.307379,21.8368602 C216.158447,21.5864375 215.810939,21.4862684 215.463431,21.4862684 C215.115923,21.4862684 214.768415,21.5864375 214.619483,21.8368602 C214.470551,22.0371983 214.470551,22.3377056 214.470551,22.6382128 L214.470551,30.050725 C214.470551,30.050725 210.945828,31.9038531 206.031074,31.9038531 C197.740529,31.9038531 190.939303,26.6950607 190.939303,16.4778142 C190.939303,5.55938413 198.683764,1.8030435 205.534634,1.8030435 C208.066477,1.8030435 210.350101,2.30388892 211.988352,2.95498796 C214.172687,3.80642517 214.966991,4.75803146 215.562719,4.75803146 C216.009515,4.75803146 216.456311,4.2071015 216.456311,3.80642517 C216.456311,3.40574883 216.059159,2.90490342 214.718771,2.15363529 C212.236572,0.751268125 209.109001,0 205.782854,0 C197.690885,0 188.804612,4.50760875 188.804612,16.7282369 C188.804612,28.0473433 196.400141,33.7068966 205.98143,33.7068966 C208.811137,33.7068966 211.293336,33.2060511 213.725892,32.3546139 C216.108803,31.5031767 216.456311,31.0524158 216.456311,29.8003023 L216.456311,22.6382128 Z M226.549107,7.75570016 C226.549107,4.40003587 229.407418,2.09614695 233.399198,2.09614695 C237.292415,2.09614695 238.820134,4.24978224 239.855039,4.24978224 C240.397133,4.24978224 240.69282,3.69885228 240.69282,3.34826049 C240.69282,2.29648512 237.48954,0.293103448 233.300636,0.293103448 C227.978263,0.293103448 224.577858,3.49851412 224.577858,7.8057847 C224.577858,13.8660142 231.280105,16.0196495 234.926916,18.3235385 C237.341697,19.8260747 239.46079,22.0297945 239.46079,25.3854588 C239.46079,29.6426449 236.109666,32.1969565 231.822199,32.1969565 C227.140482,32.1969565 225.662045,29.0917149 224.528576,29.0917149 C224.085045,29.0917149 223.592233,29.5424758 223.592233,30.0433212 C223.592233,30.5942512 224.380733,31.4456884 225.46492,32.146872 C227.288325,33.348901 229.555262,34 231.87148,34 C236.848884,34 241.432039,30.9949275 241.432039,25.3353743 C241.432039,21.0781882 238.869415,18.373623 235.666135,16.4704104 C232.216449,14.4169442 226.549107,12.4636471 226.549107,7.75570016 L226.549107,7.75570016 Z" id="logs"></path>
                </g>
            </g>
        </g>
    </g>
</svg>